<svg width="68" height="67" xmlns="http://www.w3.org/2000/svg" xmlns:xlink="http://www.w3.org/1999/xlink" xml:space="preserve" overflow="hidden"><g transform="translate(-679 -140)"><path d="M55.7635 25.8927C55.8333 25.4042 55.8333 24.9156 55.8333 24.4271 55.8333 17.5177 50.1802 11.8646 43.2708 11.8646 36.3615 11.8646 30.7083 17.5177 30.7083 24.4271 30.7083 27.4979 31.825 30.3594 33.7094 32.5229 27.2188 33.3604 22.0542 38.176 9.2125 30.0104 8.44479 29.5219 7.32812 29.9406 7.11875 30.8479 5.025 38.3156 4.74583 42.5729 8.30521 47.8073 13.3302 55.0656 18.7042 55.1354 32.4531 55.1354 46.2021 55.1354 52.9719 55.275 52.9719 46.3417 52.9719 41.6656 51.925 38.0365 48.924 35.6635 50.599 34.826 52.3438 33.151 53.0417 32.0344 56.3219 31.6854 58.6948 30.15 60.0208 28.6844 60.7188 27.9865 61.1375 27.149 61.4167 26.5906L55.7635 25.8927ZM49.4823 24.4271C48.2958 24.4271 47.3885 23.5198 47.3885 22.3333 47.3885 21.1469 48.2958 20.2396 49.4823 20.2396 50.6688 20.2396 51.576 21.1469 51.576 22.3333 51.576 23.5198 50.6688 24.4271 49.4823 24.4271Z" fill="#275317" transform="matrix(1.01493 0 0 1 679 140)"/></g></svg>