<svg width="77" height="77" xmlns="http://www.w3.org/2000/svg" xmlns:xlink="http://www.w3.org/1999/xlink" xml:space="preserve" overflow="hidden"><g transform="translate(-533 -37)"><path d="M584.67 94.75 558.201 94.75C554.879 94.75 552.186 97.4433 552.186 100.766 552.186 104.088 554.879 106.781 558.201 106.781L584.67 106.781C587.992 106.781 590.686 104.088 590.686 100.766 590.686 97.4433 587.992 94.75 584.67 94.75ZM559.806 103.172C558.477 103.172 557.399 102.095 557.399 100.766 557.399 99.4367 558.477 98.3594 559.806 98.3594 561.135 98.3594 562.212 99.4367 562.212 100.766 562.212 102.095 561.135 103.172 559.806 103.172ZM571.436 103.172C570.107 103.172 569.03 102.095 569.03 100.766 569.03 99.4367 570.107 98.3594 571.436 98.3594 572.765 98.3594 573.842 99.4367 573.842 100.766 573.842 102.095 572.765 103.172 571.436 103.172ZM583.066 103.172C581.737 103.172 580.66 102.095 580.66 100.766 580.66 99.4367 581.737 98.3594 583.066 98.3594 584.395 98.3594 585.472 99.4367 585.472 100.766 585.472 102.095 584.395 103.172 583.066 103.172Z" fill="#156082"/><path d="M576.978 59.4583C576.978 60.1228 576.44 60.6615 575.775 60.6615 575.111 60.6615 574.572 60.1228 574.572 59.4583 574.572 58.7939 575.111 58.2552 575.775 58.2552 576.44 58.2552 576.978 58.7939 576.978 59.4583Z" fill="#156082"/><path d="M578.406 51.4375 573.104 51.4375 573.104 47.788C574.639 46.902 575.164 44.9399 574.279 43.4054 573.393 41.8708 571.43 41.3451 569.896 42.231 568.361 43.117 567.836 45.0791 568.721 46.6137 569.003 47.1014 569.408 47.5064 569.896 47.788L569.896 51.4375 564.594 51.4375C562.651 51.4419 561.077 53.0158 561.073 54.9586L561.073 63.958C561.077 65.9008 562.651 67.4748 564.594 67.4792L578.406 67.4792C580.349 67.4748 581.923 65.9008 581.927 63.958L581.927 54.9586C581.923 53.0158 580.349 51.4419 578.406 51.4375ZM567.49 61.8646C566.161 61.8646 565.083 60.7873 565.083 59.4583 565.083 58.1294 566.161 57.0521 567.49 57.0521 568.819 57.0521 569.896 58.1294 569.896 59.4583 569.896 60.7873 568.819 61.8646 567.49 61.8646ZM575.51 61.8646C574.181 61.8646 573.104 60.7873 573.104 59.4583 573.104 58.1294 574.181 57.0521 575.51 57.0521 576.839 57.0521 577.917 58.1294 577.917 59.4583 577.917 60.7873 576.839 61.8646 575.51 61.8646Z" fill="#156082"/><path d="M568.957 59.4583C568.957 60.1228 568.419 60.6615 567.754 60.6615 567.09 60.6615 566.551 60.1228 566.551 59.4583 566.551 58.7939 567.09 58.2552 567.754 58.2552 568.419 58.2552 568.957 58.7939 568.957 59.4583Z" fill="#156082"/><path d="M592.354 84.1785 592.354 77.4972C592.354 75.5082 590.742 73.8958 588.753 73.8958L584.333 73.8958 584.333 69.8854 558.667 69.8854 558.667 74.6979 552.643 74.6979C552.426 74.6979 552.25 74.5219 552.25 74.3049L552.25 67.6556C555.007 66.8413 556.582 63.9461 555.768 61.1889 555.55 60.4497 555.17 59.7683 554.656 59.1936L552.25 61.3272C552.587 61.6932 552.778 62.1695 552.787 62.6667 552.781 63.7741 551.879 64.667 550.771 64.661 549.664 64.6549 548.771 63.7523 548.777 62.6448 548.78 62.1665 548.953 61.7049 549.266 61.3432L546.86 59.2337C544.97 61.4056 545.198 64.6987 547.37 66.5892 547.861 67.0168 548.428 67.3487 549.042 67.5674L549.042 74.3049C549.042 76.2939 550.654 77.9062 552.643 77.9062L558.667 77.9062 558.667 92.3438 584.333 92.3438 584.333 77.1042 588.753 77.1042C588.97 77.1042 589.146 77.2801 589.146 77.4972L589.146 84.1785C586.406 85.0648 584.904 88.0041 585.79 90.7437 586.012 91.4293 586.373 92.0615 586.852 92.6004L589.258 90.4669C588.926 90.103 588.743 89.6279 588.745 89.1354 588.746 88.028 589.644 87.1309 590.752 87.1319 591.859 87.1329 592.756 88.0313 592.755 89.1388 592.755 89.6245 592.578 90.0936 592.258 90.4589L594.664 92.5683C596.562 90.4088 596.35 87.1197 594.19 85.2219 593.656 84.7523 593.031 84.3972 592.354 84.1785ZM581.125 81.1146 578.895 81.1146C578.818 81.1285 578.744 81.1585 578.679 81.2028L576.224 83.7133 574.355 79.2858 570.866 86.5046 568.42 77.1042 566.535 81.1146 562.677 81.1146 562.677 79.5104 565.516 79.5104 568.853 72.412 571.324 81.8605 574.46 75.4439 576.77 80.9141 577.572 80.112C577.924 79.7555 578.395 79.5414 578.895 79.5104L581.125 79.5104Z" fill="#156082"/></g></svg>